<svg xmlns="http://www.w3.org/2000/svg" width="22" height="22" fill="none"><path fill="url(#a)" d="M17.875 6.874 16.51 8.24l-2.75-2.75 1.366-1.366c.385-.385.88-.568 1.375-.568s.99.183 1.375.568c.76.761.76 1.99 0 2.75Z"/><path fill="url(#b)" d="m15.867 8.891-9.909 9.9a1.943 1.943 0 1 1-2.75-2.75l9.91-9.9 2.75 2.75Z"/><path fill="url(#c)" d="m9.12 3.208.377-1.274a.355.355 0 0 0-.083-.34.349.349 0 0 0-.348-.091l-1.274.376-1.274-.376a.355.355 0 0 0-.34.082.334.334 0 0 0-.082.34l.367 1.283-.376 1.274c-.037.12 0 .248.082.34.092.091.22.118.34.082l1.283-.367 1.274.376c.037.01.064.018.1.018a.371.371 0 0 0 .248-.1.334.334 0 0 0 .083-.34L9.12 3.208Z"/><path fill="url(#d)" d="m5.454 8.708.376-1.274a.355.355 0 0 0-.083-.34.334.334 0 0 0-.339-.082l-1.283.367-1.274-.376a.355.355 0 0 0-.34.082.334.334 0 0 0-.082.34l.367 1.283-.376 1.274c-.037.12 0 .248.082.34.092.091.22.119.34.082l1.274-.376 1.274.376a.344.344 0 0 0 .1.009.371.371 0 0 0 .248-.1.334.334 0 0 0 .083-.34l-.367-1.265Z"/><path fill="url(#e)" d="m19.204 13.291.376-1.274a.355.355 0 0 0-.082-.34.334.334 0 0 0-.34-.082l-1.274.376-1.274-.376a.355.355 0 0 0-.34.083.334.334 0 0 0-.082.339l.376 1.274-.376 1.274c-.036.12 0 .248.083.34.091.091.22.119.339.082l1.274-.376 1.274.376c.028.01.064.01.101.01a.371.371 0 0 0 .248-.102.334.334 0 0 0 .082-.339l-.385-1.265Z"/><defs><radialGradient id="a" cx="0" cy="0" r="1" gradientTransform="matrix(-4.02743 4.02546 -3.03872 -3.0402 18.006 3.922)" gradientUnits="userSpaceOnUse"><stop stop-color="#FF9937"/><stop offset=".895" stop-color="#FE6A2E"/></radialGradient><radialGradient id="b" cx="0" cy="0" r="1" gradientTransform="matrix(-11.36936 11.36143 -8.57647 -8.58246 14.627 7.174)" gradientUnits="userSpaceOnUse"><stop stop-color="#FF9937"/><stop offset=".895" stop-color="#FE6A2E"/></radialGradient><radialGradient id="c" cx="0" cy="0" r="1" gradientTransform="matrix(-2.95618 2.95845 -2.23326 -2.23154 9.19 1.758)" gradientUnits="userSpaceOnUse"><stop stop-color="#FF9937"/><stop offset=".895" stop-color="#FE6A2E"/></radialGradient><radialGradient id="d" cx="0" cy="0" r="1" gradientTransform="matrix(-2.9549 2.9483 -2.2256 -2.23058 5.522 7.257)" gradientUnits="userSpaceOnUse"><stop stop-color="#FF9937"/><stop offset=".895" stop-color="#FE6A2E"/></radialGradient><radialGradient id="e" cx="0" cy="0" r="1" gradientTransform="rotate(135.077 7.193 9.91) scale(4.1658 3.14465)" gradientUnits="userSpaceOnUse"><stop stop-color="#FF9937"/><stop offset=".895" stop-color="#FE6A2E"/></radialGradient></defs></svg>