<svg xmlns="http://www.w3.org/2000/svg" width="24" height="24" fill="none"><path fill="url(#a)" d="M17.62 10.75a.77.77 0 0 1-.77-.77c0-.37-.37-1.14-.99-1.81-.61-.65-1.28-1.03-1.84-1.03a.77.77 0 0 1-.77-.77c0-.42.35-.77.77-.77 1 0 2.05.54 2.97 1.51.86.91 1.41 2.04 1.41 2.86 0 .43-.35.78-.78.78Z"/><path fill="url(#b)" d="M21.23 10.75a.77.77 0 0 1-.77-.77c0-3.55-2.89-6.43-6.43-6.43a.77.77 0 0 1-.77-.77c0-.42.34-.78.76-.78C18.42 2 22 5.58 22 9.98c0 .42-.35.77-.77.77Z"/><path fill="url(#c)" d="M11.05 14.95 9.2 16.8c-.39.39-1.01.39-1.41.01-.11-.11-.22-.21-.33-.32a28.414 28.414 0 0 1-2.79-3.27c-.82-1.14-1.48-2.28-1.96-3.41C2.24 8.67 2 7.58 2 6.54c0-.68.12-1.33.36-1.93.24-.61.62-1.17 1.15-1.67C4.15 2.31 4.85 2 5.59 2c.28 0 .56.06.81.18.26.12.49.3.67.56l2.32 3.27c.18.25.31.48.4.7.09.21.14.42.14.61 0 .24-.07.48-.21.71-.13.23-.32.47-.56.71l-.76.79c-.11.11-.16.24-.16.4 0 .08.01.15.03.23.03.08.06.14.08.2.18.33.49.76.93 1.28.45.52.93 1.05 1.45 1.58.1.1.21.2.31.3.4.39.41 1.03.01 1.43Z"/><path fill="url(#d)" d="M21.97 18.33c0 .28-.05.57-.15.85-.03.08-.06.16-.1.24-.17.36-.39.7-.68 1.02-.49.54-1.03.93-1.64 1.18-.01 0-.02.01-.03.01-.59.24-1.23.37-1.92.37-1.02 0-2.11-.24-3.26-.73s-2.3-1.15-3.44-1.98c-.39-.29-.78-.58-1.15-.89l3.27-3.27c.28.21.53.37.74.48.05.02.11.05.18.08.08.03.16.04.25.04.17 0 .3-.06.41-.17l.76-.75c.25-.25.49-.44.72-.56.23-.14.46-.21.71-.21.19 0 .39.04.61.13.22.09.45.22.7.39l3.31 2.35c.26.18.44.39.55.64.1.25.16.5.16.78Z"/><defs><radialGradient id="a" cx="0" cy="0" r="1" gradientTransform="matrix(-4.42578 4.42578 -3.34092 -3.34092 17.916 6.003)" gradientUnits="userSpaceOnUse"><stop stop-color="#FF9937"/><stop offset=".895" stop-color="#FE6A2E"/></radialGradient><radialGradient id="b" cx="0" cy="0" r="1" gradientTransform="matrix(-7.51087 7.51953 -5.67633 -5.6698 21.18 2.684)" gradientUnits="userSpaceOnUse"><stop stop-color="#FF9937"/><stop offset=".895" stop-color="#FE6A2E"/></radialGradient><radialGradient id="c" cx="0" cy="0" r="1" gradientTransform="matrix(-8.03092 12.97124 -8.76488 -5.42662 10.469 3.18)" gradientUnits="userSpaceOnUse"><stop stop-color="#FF9937"/><stop offset=".895" stop-color="#FE6A2E"/></radialGradient><radialGradient id="d" cx="0" cy="0" r="1" gradientTransform="rotate(147.239 8.25 10.39) scale(12.6412 8.68488)" gradientUnits="userSpaceOnUse"><stop stop-color="#FF9937"/><stop offset=".895" stop-color="#FE6A2E"/></radialGradient></defs></svg>