<svg xmlns="http://www.w3.org/2000/svg" width="102" height="17" fill="none"><path fill="url(#a)" d="M5.927 5.132 8.266.451A.817.817 0 0 1 8.999 0a.824.824 0 0 1 .734.45l2.338 4.682 5.229.755a.814.814 0 0 1 .66.55.802.802 0 0 1-.208.83l-3.782 3.642.893 5.144c.114.66-.588 1.163-1.188.852l-4.676-2.43-4.676 2.43c-.6.312-1.302-.191-1.187-.853l.893-5.144L.246 7.266a.806.806 0 0 1 .453-1.378l5.228-.756Z"/><path fill="url(#b)" d="M26.927 5.132 29.266.451A.816.816 0 0 1 29.999 0a.824.824 0 0 1 .734.45l2.338 4.682 5.229.755a.814.814 0 0 1 .66.55.802.802 0 0 1-.208.83l-3.782 3.642.893 5.144c.114.66-.588 1.163-1.188.852l-4.676-2.43-4.676 2.43c-.6.312-1.302-.191-1.188-.853l.893-5.144-3.782-3.642a.806.806 0 0 1 .453-1.378l5.228-.756Z"/><path fill="url(#c)" d="M47.927 5.132 50.266.451A.816.816 0 0 1 50.999 0a.824.824 0 0 1 .734.45l2.338 4.682 5.229.755a.814.814 0 0 1 .66.55.802.802 0 0 1-.208.83l-3.782 3.642.893 5.144c.114.66-.588 1.163-1.188.852l-4.676-2.43-4.676 2.43c-.6.312-1.302-.191-1.188-.853l.894-5.144-3.783-3.642a.806.806 0 0 1 .453-1.378l5.228-.756Z"/><path fill="url(#d)" d="M68.927 5.132 71.266.451A.816.816 0 0 1 71.999 0a.824.824 0 0 1 .734.45l2.338 4.682 5.229.755a.814.814 0 0 1 .66.55.802.802 0 0 1-.208.83l-3.782 3.642.893 5.144c.114.66-.588 1.163-1.188.852l-4.676-2.43-4.676 2.43c-.6.312-1.302-.191-1.188-.853l.893-5.144-3.782-3.642a.806.806 0 0 1 .453-1.378l5.228-.756Z"/><path fill="url(#e)" d="M89.927 5.132 92.266.451A.816.816 0 0 1 92.999 0a.824.824 0 0 1 .734.45l2.338 4.682 5.229.755a.817.817 0 0 1 .66.55.802.802 0 0 1-.208.83l-3.782 3.642.893 5.144c.114.66-.588 1.163-1.188.852l-4.676-2.43-4.676 2.43c-.6.312-1.302-.191-1.188-.853l.893-5.144-3.782-3.642a.806.806 0 0 1 .453-1.378l5.228-.756Z"/><defs><radialGradient id="a" cx="0" cy="0" r="1" gradientTransform="rotate(136.637 7.892 3.907) scale(21.2771 16.0354)" gradientUnits="userSpaceOnUse"><stop stop-color="#FF9937"/><stop offset=".895" stop-color="#FE6A2E"/></radialGradient><radialGradient id="b" cx="0" cy="0" r="1" gradientTransform="rotate(136.637 18.392 8.081) scale(21.2771 16.0354)" gradientUnits="userSpaceOnUse"><stop stop-color="#FF9937"/><stop offset=".895" stop-color="#FE6A2E"/></radialGradient><radialGradient id="c" cx="0" cy="0" r="1" gradientTransform="rotate(136.637 28.892 12.256) scale(21.2771 16.0354)" gradientUnits="userSpaceOnUse"><stop stop-color="#FF9937"/><stop offset=".895" stop-color="#FE6A2E"/></radialGradient><radialGradient id="d" cx="0" cy="0" r="1" gradientTransform="rotate(136.637 39.392 16.43) scale(21.2771 16.0354)" gradientUnits="userSpaceOnUse"><stop stop-color="#FF9937"/><stop offset=".895" stop-color="#FE6A2E"/></radialGradient><radialGradient id="e" cx="0" cy="0" r="1" gradientTransform="rotate(136.637 49.892 20.605) scale(21.2771 16.0354)" gradientUnits="userSpaceOnUse"><stop stop-color="#FF9937"/><stop offset=".895" stop-color="#FE6A2E"/></radialGradient></defs></svg>