<svg xmlns="http://www.w3.org/2000/svg" width="24" height="24" fill="none"><path fill="url(#a)" d="M7 8H4c-1.1 0-2-.9-2-2V4c0-1.1.9-2 2-2h3c1.1 0 2 .9 2 2v2c0 1.1-.9 2-2 2Z"/><path fill="url(#b)" d="M20.8 7h-3.6c-.66 0-1.2-.54-1.2-1.2V4.2c0-.66.54-1.2 1.2-1.2h3.6c.66 0 1.2.54 1.2 1.2v1.6c0 .66-.54 1.2-1.2 1.2Z"/><path fill="url(#c)" d="M20.8 14.5h-3.6c-.66 0-1.2-.54-1.2-1.2v-1.6c0-.66.54-1.2 1.2-1.2h3.6c.66 0 1.2.54 1.2 1.2v1.6c0 .66-.54 1.2-1.2 1.2Z"/><path fill="url(#d)" d="M16 13.25c.41 0 .75-.34.75-.75s-.34-.75-.75-.75h-2.75v-6H16c.41 0 .75-.34.75-.75s-.34-.75-.75-.75H9c-.41 0-.75.34-.75.75s.34.75.75.75h2.75V18c0 1.52 1.23 2.75 2.75 2.75H16c.41 0 .75-.34.75-.75s-.34-.75-.75-.75h-1.5c-.69 0-1.25-.56-1.25-1.25v-4.75H16Z" opacity=".96"/><path fill="url(#e)" d="M20.8 22h-3.6c-.66 0-1.2-.54-1.2-1.2v-1.6c0-.66.54-1.2 1.2-1.2h3.6c.66 0 1.2.54 1.2 1.2v1.6c0 .66-.54 1.2-1.2 1.2Z"/><defs><radialGradient id="a" cx="0" cy="0" r="1" gradientTransform="matrix(-6.01565 5.15622 -3.84651 -4.48764 8.344 2.469)" gradientUnits="userSpaceOnUse"><stop stop-color="#FF9937"/><stop offset=".895" stop-color="#FE6A2E"/></radialGradient><radialGradient id="b" cx="0" cy="0" r="1" gradientTransform="matrix(-5.15625 3.4375 -2.39527 -3.59292 21.438 3.313)" gradientUnits="userSpaceOnUse"><stop stop-color="#FF9937"/><stop offset=".895" stop-color="#FE6A2E"/></radialGradient><radialGradient id="c" cx="0" cy="0" r="1" gradientTransform="matrix(-5.15625 3.4375 -2.39527 -3.59292 21.438 10.813)" gradientUnits="userSpaceOnUse"><stop stop-color="#FF9937"/><stop offset=".895" stop-color="#FE6A2E"/></radialGradient><radialGradient id="d" cx="0" cy="0" r="1" gradientTransform="matrix(-7.3046 14.17972 -8.71539 -4.48968 15.953 5.54)" gradientUnits="userSpaceOnUse"><stop stop-color="#FF9937"/><stop offset=".895" stop-color="#FE6A2E"/></radialGradient><radialGradient id="e" cx="0" cy="0" r="1" gradientTransform="matrix(-5.15625 3.4375 -2.39527 -3.59292 21.438 18.313)" gradientUnits="userSpaceOnUse"><stop stop-color="#FF9937"/><stop offset=".895" stop-color="#FE6A2E"/></radialGradient></defs></svg>