<svg xmlns="http://www.w3.org/2000/svg" width="20" height="20" fill="none"><path fill="url(#a)" d="M14.167 18.333H5.833a.63.63 0 0 1-.625-.625.63.63 0 0 1 .625-.625h8.334a.63.63 0 0 1 .625.625.63.63 0 0 1-.625.625Z"/><path fill="url(#b)" d="m16.958 4.6-3.333 2.383a.839.839 0 0 1-1.267-.383l-1.575-4.2c-.266-.725-1.291-.725-1.558 0L7.642 6.59a.822.822 0 0 1-1.259.384L3.05 4.59c-.667-.466-1.55.192-1.275.967l3.467 9.708c.116.334.433.55.783.55h7.942c.35 0 .666-.225.783-.55l3.467-9.708c.283-.775-.6-1.433-1.259-.958Zm-4.875 7.691H7.917a.63.63 0 0 1-.625-.625.63.63 0 0 1 .625-.625h4.166a.63.63 0 0 1 .625.625.63.63 0 0 1-.625.625Z"/><defs><radialGradient id="a" cx="0" cy="0" r="1" gradientTransform="matrix(-8.23569 1.07416 -.20799 -1.59467 13.893 17.18)" gradientUnits="userSpaceOnUse"><stop stop-color="#FF9937"/><stop offset=".895" stop-color="#FE6A2E"/></radialGradient><radialGradient id="b" cx="0" cy="0" r="1" gradientTransform="matrix(-14.22058 11.99734 -8.92717 -10.58147 16.72 2.947)" gradientUnits="userSpaceOnUse"><stop stop-color="#FF9937"/><stop offset=".895" stop-color="#FE6A2E"/></radialGradient></defs></svg>